<svg width="16" height="16" viewBox="0 0 16 16" fill="none" xmlns="http://www.w3.org/2000/svg">
<path d="M9.41313 10.2667L12.4731 7.20666C12.5973 7.08175 12.667 6.91278 12.667 6.73666C12.667 6.56053 12.5973 6.39157 12.4731 6.26666C12.4112 6.20417 12.3374 6.15458 12.2562 6.12073C12.1749 6.08688 12.0878 6.06946 11.9998 6.06946C11.9118 6.06946 11.8247 6.08688 11.7434 6.12073C11.6622 6.15458 11.5884 6.20417 11.5265 6.26666L8.47313 9.33332C8.41116 9.39581 8.33742 9.44541 8.25618 9.47925C8.17494 9.5131 8.0878 9.53052 7.9998 9.53052C7.91179 9.53052 7.82465 9.5131 7.74341 9.47925C7.66217 9.44541 7.58844 9.39581 7.52646 9.33332L4.47313 6.26666C4.34848 6.14112 4.17906 6.07024 4.00215 6.06962C3.82524 6.06899 3.65533 6.13867 3.5298 6.26332C3.40426 6.38798 3.33338 6.55739 3.33276 6.7343C3.33213 6.91121 3.40181 7.08112 3.52646 7.20666L6.58646 10.2667C6.96146 10.6412 7.4698 10.8516 7.9998 10.8516C8.5298 10.8516 9.03813 10.6412 9.41313 10.2667Z" fill="black"/>
</svg>
