<svg width="14" height="14" viewBox="0 0 14 14" fill="none" xmlns="http://www.w3.org/2000/svg">
<g clip-path="url(#clip0_65_162)">
<path d="M7.013 13.3997C3.4675 13.3997 0.583496 10.5227 0.583496 6.98715C0.583496 3.66157 3.08308 0.917569 6.39816 0.603152C6.65658 0.573402 6.89108 0.721569 6.99025 0.955485C7.09 1.18882 7.02641 1.46065 6.83333 1.62574C6.19516 2.1729 5.88483 3.11907 5.88483 4.51732C5.88483 7.50865 7.26383 8.10949 9.48925 8.10949C10.9254 8.10949 11.8459 7.80907 12.3872 7.16449C12.5506 6.96849 12.8242 6.90374 13.0587 7.00115C13.2943 7.09974 13.4384 7.34007 13.4139 7.5944C13.1018 10.9037 10.3497 13.3992 7.013 13.3992V13.3997ZM5.12183 2.08599C3.128 2.84199 1.75016 4.75415 1.75016 6.98657C1.75016 9.87932 4.1115 12.2325 7.013 12.2325C9.24833 12.2325 11.1634 10.8646 11.9252 8.88415C11.0992 9.2219 10.198 9.27674 9.48866 9.27674C7.44058 9.27674 4.71758 8.78324 4.71758 4.5179C4.71758 3.55365 4.85175 2.7469 5.12183 2.08599Z" fill="#0D0D0D"/>
</g>
<defs>
<clipPath id="clip0_65_162">
<rect width="14" height="14" fill="white"/>
</clipPath>
</defs>
</svg>
