<svg width="48" height="48" viewBox="0 0 48 48" fill="none" xmlns="http://www.w3.org/2000/svg">
<path d="M23.9399 44C34.9856 44 43.9399 35.0457 43.9399 24C43.9399 12.9543 34.9856 4 23.9399 4C12.8942 4 3.93994 12.9543 3.93994 24C3.93994 35.0457 12.8942 44 23.9399 44Z" fill="white"/>
<path d="M21.44 30.0601V17.9401C21.44 16.9801 21.04 16.6001 20.02 16.6001H17.42C16.4 16.6001 16 16.9801 16 17.9401V30.0601C16 31.0201 16.4 31.4001 17.42 31.4001H20C21.04 31.4001 21.44 31.0201 21.44 30.0601Z" fill="#060606"/>
<path d="M32.0001 30.0601V17.9401C32.0001 16.9801 31.6001 16.6001 30.5801 16.6001H28.0001C26.9801 16.6001 26.5801 16.9801 26.5801 17.9401V30.0601C26.5801 31.0201 26.9801 31.4001 28.0001 31.4001H30.5801C31.6001 31.4001 32.0001 31.0201 32.0001 30.0601Z" fill="#060606"/>
</svg>
