<svg width="24" height="24" viewBox="0 0 24 24" fill="none" xmlns="http://www.w3.org/2000/svg">
<g clip-path="url(#clip0_65_177)">
<path d="M16.395 10.122L11.203 7.279C10.53 6.9 9.73 6.907 9.065 7.296C8.398 7.686 8.001 8.379 8.001 9.151V14.85C8.001 15.622 8.398 16.315 9.065 16.705C9.405 16.904 9.779 17.002 10.152 17.002C10.51 17.002 10.868 16.911 11.193 16.728L16.405 13.874C17.092 13.488 17.501 12.788 17.501 12.001C17.501 11.214 17.092 10.514 16.396 10.123L16.395 10.122ZM15.434 12.125L10.222 14.98C10.203 14.99 10.145 15.022 10.075 14.979C10.001 14.936 10.001 14.872 10.001 14.851V9.152C10.001 9.131 10.001 9.067 10.075 9.024C10.102 9.008 10.127 9.003 10.149 9.003C10.185 9.003 10.214 9.019 10.232 9.029L15.424 11.873C15.443 11.884 15.5 11.916 15.5 12.003C15.5 12.09 15.442 12.122 15.434 12.128V12.125ZM12 0C5.383 0 0 5.383 0 12C0 18.617 5.383 24 12 24C18.617 24 24 18.617 24 12C24 5.383 18.617 0 12 0ZM12 22C6.486 22 2 17.514 2 12C2 6.486 6.486 2 12 2C17.514 2 22 6.486 22 12C22 17.514 17.514 22 12 22Z" fill="black"/>
</g>
<defs>
<clipPath id="clip0_65_177">
<rect width="24" height="24" fill="white"/>
</clipPath>
</defs>
</svg>
