<svg width="18" height="18" viewBox="0 0 18 18" fill="none" xmlns="http://www.w3.org/2000/svg">
<path d="M6.56434 10.3339L9.77408 13.5704C9.90511 13.7017 10.0831 13.7761 10.269 13.7774C10.455 13.7786 10.634 13.7066 10.7668 13.577C10.8332 13.5124 10.8861 13.4352 10.9224 13.3501C10.9587 13.265 10.9777 13.1736 10.9784 13.0811C10.979 12.9887 10.9612 12.897 10.926 12.8114C10.8909 12.7258 10.839 12.648 10.7735 12.5824L7.55665 9.35286C7.4911 9.28731 7.43925 9.20949 7.40408 9.1239C7.36892 9.03831 7.35113 8.94663 7.35176 8.85417C7.35238 8.76171 7.3714 8.67028 7.40772 8.58517C7.44404 8.50005 7.49694 8.42294 7.56337 8.35827L10.8236 5.17202C10.957 5.04194 11.0331 4.86445 11.035 4.67859C11.0369 4.49273 10.9645 4.31372 10.8338 4.18095C10.703 4.04818 10.5246 3.97252 10.3378 3.97061C10.151 3.9687 9.97107 4.04071 9.83762 4.17078L6.58441 7.36408C6.18622 7.75542 5.96045 8.288 5.95669 8.84484C5.95292 9.40167 6.17148 9.93722 6.56434 10.3339Z" fill="black"/>
</svg>
