<svg width="18" height="18" viewBox="0 0 18 18" fill="none" xmlns="http://www.w3.org/2000/svg">
<path d="M11.2919 7.38181L8.06033 4.16682C7.92842 4.03636 7.74998 3.96313 7.56398 3.96313C7.37798 3.96313 7.19954 4.03636 7.06763 4.16682C7.00164 4.23193 6.94926 4.3094 6.91352 4.39475C6.87778 4.48011 6.85938 4.57166 6.85938 4.66412C6.85938 4.75659 6.87778 4.84814 6.91352 4.93349C6.94926 5.01885 7.00164 5.09632 7.06763 5.16143L10.3062 8.36942C10.3722 8.43453 10.4246 8.512 10.4603 8.59736C10.4961 8.68271 10.5145 8.77426 10.5145 8.86673C10.5145 8.95919 10.4961 9.05074 10.4603 9.1361C10.4246 9.22145 10.3722 9.29892 10.3062 9.36404L7.06763 12.572C6.93506 12.703 6.86021 12.881 6.85955 13.0669C6.85889 13.2527 6.93247 13.4312 7.06411 13.5631C7.19575 13.695 7.37466 13.7695 7.56149 13.7702C7.74832 13.7708 7.92776 13.6976 8.06033 13.5666L11.2919 10.3516C11.6874 9.95765 11.9096 9.42357 11.9096 8.86673C11.9096 8.30988 11.6874 7.7758 11.2919 7.38181Z" fill="black"/>
</svg>
