<svg width="14" height="14" viewBox="0 0 14 14" fill="none" xmlns="http://www.w3.org/2000/svg">
<g clip-path="url(#clip0_65_159)">
<path d="M13.4167 6.41667H11.0367C10.9912 6.09527 10.9072 5.78053 10.7864 5.47925L12.8438 4.28692C12.9126 4.24991 12.9732 4.19948 13.0221 4.13861C13.071 4.07774 13.1072 4.00767 13.1286 3.93255C13.1499 3.85743 13.1559 3.7788 13.1463 3.70131C13.1367 3.62382 13.1116 3.54905 13.0725 3.48144C13.0334 3.41383 12.9812 3.35474 12.9189 3.30769C12.8566 3.26064 12.7854 3.22658 12.7097 3.20753C12.634 3.18848 12.5552 3.18483 12.478 3.19679C12.4009 3.20875 12.3269 3.23608 12.2605 3.27717L10.2013 4.47125C10.0045 4.22258 9.77958 3.99748 9.53108 3.80042L10.7246 1.74067C10.7965 1.60711 10.8135 1.45082 10.7721 1.30492C10.7306 1.15903 10.634 1.035 10.5027 0.95913C10.3714 0.883264 10.2157 0.861527 10.0686 0.898528C9.92151 0.935528 9.79463 1.02836 9.71483 1.15733L8.52075 3.21358C8.21951 3.09267 7.90475 3.00865 7.58333 2.96333V0.583333C7.58333 0.428624 7.52187 0.280251 7.41248 0.170854C7.30308 0.0614582 7.15471 0 7 0C6.84529 0 6.69692 0.0614582 6.58752 0.170854C6.47812 0.280251 6.41667 0.428624 6.41667 0.583333V2.96333C6.09525 3.00865 5.78049 3.09267 5.47925 3.21358L4.28692 1.15617C4.20712 1.02719 4.08024 0.934362 3.93316 0.897361C3.78608 0.86036 3.63037 0.882098 3.49904 0.957964C3.36772 1.03383 3.27111 1.15786 3.22969 1.30376C3.18827 1.44965 3.2053 1.60595 3.27717 1.7395L4.47067 3.80042C4.22217 3.99748 3.99727 4.22258 3.80042 4.47125L1.74125 3.27717C1.67485 3.23608 1.60087 3.20875 1.5237 3.19679C1.44654 3.18483 1.36776 3.18848 1.29203 3.20753C1.21631 3.22658 1.14518 3.26064 1.08286 3.30769C1.02054 3.35474 0.968304 3.41383 0.929243 3.48144C0.890183 3.54905 0.865095 3.62382 0.855467 3.70131C0.845838 3.7788 0.851865 3.85743 0.873191 3.93255C0.894516 4.00767 0.930706 4.07774 0.979615 4.13861C1.02852 4.19948 1.08916 4.24991 1.15792 4.28692L3.21358 5.47925C3.0928 5.78053 3.00878 6.09527 2.96333 6.41667H0.583333C0.428624 6.41667 0.280251 6.47812 0.170854 6.58752C0.0614582 6.69692 0 6.84529 0 7C0 7.15471 0.0614582 7.30308 0.170854 7.41248C0.280251 7.52187 0.428624 7.58333 0.583333 7.58333H2.96333C3.00878 7.90473 3.0928 8.21947 3.21358 8.52075L1.15617 9.71308C1.08741 9.75009 1.02677 9.80052 0.977865 9.86139C0.928956 9.92226 0.892766 9.99233 0.871441 10.0674C0.850115 10.1426 0.844088 10.2212 0.853717 10.2987C0.863345 10.3762 0.888433 10.4509 0.927494 10.5186C0.966554 10.5862 1.01879 10.6453 1.08111 10.6923C1.14343 10.7394 1.21456 10.7734 1.29028 10.7925C1.36601 10.8115 1.44479 10.8152 1.52195 10.8032C1.59912 10.7912 1.6731 10.7639 1.7395 10.7228L3.79867 9.52875C3.99552 9.77742 4.22042 10.0025 4.46892 10.1996L3.27717 12.2593C3.2053 12.3929 3.18827 12.5492 3.22969 12.6951C3.27111 12.841 3.36772 12.965 3.49904 13.0409C3.63037 13.1167 3.78608 13.1385 3.93316 13.1015C4.08024 13.0645 4.20712 12.9716 4.28692 12.8427L5.47925 10.7852C5.78052 10.9063 6.09525 10.9907 6.41667 11.0367V13.4167C6.41667 13.5714 6.47812 13.7197 6.58752 13.8291C6.69692 13.9385 6.84529 14 7 14C7.15471 14 7.30308 13.9385 7.41248 13.8291C7.52187 13.7197 7.58333 13.5714 7.58333 13.4167V11.0367C7.9047 10.9911 8.21943 10.9071 8.52075 10.7864L9.71308 12.8438C9.79288 12.9728 9.91976 13.0656 10.0668 13.1026C10.2139 13.1396 10.3696 13.1179 10.501 13.042C10.6323 12.9662 10.7289 12.8421 10.7703 12.6962C10.8117 12.5503 10.7947 12.3941 10.7228 12.2605L9.52933 10.2007C9.77783 10.0037 10.0027 9.77858 10.1996 9.52992L12.2587 10.724C12.3252 10.7651 12.3991 10.7924 12.4763 10.8044C12.5535 10.8163 12.6322 10.8127 12.708 10.7936C12.7837 10.7746 12.8548 10.7405 12.9171 10.6935C12.9795 10.6464 13.0317 10.5873 13.0708 10.5197C13.1098 10.4521 13.1349 10.3773 13.1445 10.2999C13.1542 10.2224 13.1481 10.1437 13.1268 10.0686C13.1055 9.9935 13.0693 9.92343 13.0204 9.86256C12.9715 9.80169 12.9108 9.75125 12.8421 9.71425L10.7847 8.52192C10.9061 8.22034 10.9907 7.9052 11.0367 7.58333H13.4167C13.5714 7.58333 13.7197 7.52187 13.8291 7.41248C13.9385 7.30308 14 7.15471 14 7C14 6.84529 13.9385 6.69692 13.8291 6.58752C13.7197 6.47812 13.5714 6.41667 13.4167 6.41667ZM7 9.91667C3.14533 9.79417 3.1465 4.20525 7 4.08333C10.8547 4.20583 10.8535 9.79475 7 9.91667Z" fill="black"/>
</g>
<defs>
<clipPath id="clip0_65_159">
<rect width="14" height="14" fill="white"/>
</clipPath>
</defs>
</svg>
